HIERARCHY
ROOT joint_0
{
	OFFSET 0.000000 0.000000 0.000000
	CHANNELS 6 Xposition Yposition Zposition Zrotation Yrotation Xrotation 
	JOINT joint_1
	{
		OFFSET 7.566162 2.250183 114.799927
		CHANNELS 3 Zrotation Yrotation Xrotation
		JOINT joint_2
		{
			OFFSET -5.201660 -0.414001 104.936035
			CHANNELS 3 Zrotation Yrotation Xrotation
			JOINT joint_3
			{
				OFFSET -6.923584 -0.419739 104.718018
				CHANNELS 3 Zrotation Yrotation Xrotation
				JOINT joint_4
				{
					OFFSET 3.108887 2.881104 149.449951
					CHANNELS 3 Zrotation Yrotation Xrotation
					JOINT joint_5
					{
						OFFSET 19.988770 5.920349 90.786987
						CHANNELS 3 Zrotation Yrotation Xrotation
						End Site
						{
							OFFSET 0.000000 0.000000 0.000000
						}
					}
				}
				JOINT joint_6
				{
					OFFSET 9.283936 -30.015930 84.410034
					CHANNELS 3 Zrotation Yrotation Xrotation
					JOINT joint_7
					{
						OFFSET 47.243164 -155.716736 -23.241089
						CHANNELS 3 Zrotation Yrotation Xrotation
						JOINT joint_8
						{
							OFFSET 31.323730 -15.356873 -268.798950
							CHANNELS 3 Zrotation Yrotation Xrotation
							JOINT joint_9
							{
								OFFSET 28.122314 -2.114624 -262.450012
								CHANNELS 3 Zrotation Yrotation Xrotation
								End Site
								{
									OFFSET 0.000000 0.000000 0.000000
								}
							}
						}
					}
				}
				JOINT joint_10
				{
					OFFSET -5.580566 33.311218 83.498047
					CHANNELS 3 Zrotation Yrotation Xrotation
					JOINT joint_11
					{
						OFFSET -22.773438 160.515381 -27.138062
						CHANNELS 3 Zrotation Yrotation Xrotation
						JOINT joint_12
						{
							OFFSET 27.004395 30.848877 -267.937988
							CHANNELS 3 Zrotation Yrotation Xrotation
							JOINT joint_13
							{
								OFFSET 32.625000 14.824585 -261.518005
								CHANNELS 3 Zrotation Yrotation Xrotation
								End Site
								{
									OFFSET 0.000000 0.000000 0.000000
								}
							}
						}
					}
				}
			}
		}
	}
	JOINT joint_14
	{
		OFFSET 20.623535 -83.447632 -106.174011
		CHANNELS 3 Zrotation Yrotation Xrotation
		JOINT joint_15
		{
			OFFSET 0.661865 -23.563843 -459.915039
			CHANNELS 3 Zrotation Yrotation Xrotation
			JOINT joint_16
			{
				OFFSET -23.461670 -28.727966 -444.760971
				CHANNELS 3 Zrotation Yrotation Xrotation
				JOINT joint_17
				{
					OFFSET 178.992920 54.047363 -80.113001
					CHANNELS 3 Zrotation Yrotation Xrotation
					End Site
					{
						OFFSET 0.000000 0.000000 0.000000
					}
				}
			}
		}
	}
	JOINT joint_18
	{
		OFFSET -19.571533 84.686279 -105.380005
		CHANNELS 3 Zrotation Yrotation Xrotation
		JOINT joint_19
		{
			OFFSET -22.949951 3.639404 -459.933044
			CHANNELS 3 Zrotation Yrotation Xrotation
			JOINT joint_20
			{
				OFFSET -33.690674 4.092651 -445.010971
				CHANNELS 3 Zrotation Yrotation Xrotation
				JOINT joint_21
				{
					OFFSET 187.419678 18.953857 -76.759001
					CHANNELS 3 Zrotation Yrotation Xrotation
					End Site
					{
						OFFSET 0.000000 0.000000 0.000000
					}
				}
			}
		}
	}
}
MOTION
Frames: 7
Frame Time: 0.016667
-2920.978760 991.194763 1129.583008 -4.825646 2.768385 -1.840084 0.510294 4.032773 3.865649 0.402224 -0.629998 -0.827484 0.520215 0.767549 0.543116 0.230580 0.494459 -1.137044 0.000000 0.000000 0.000000 -2.891905 5.248079 -4.791077 -0.386537 5.280455 -3.076942 4.030938 -22.606924 28.774725 0.000000 0.000000 0.000000 1.593383 5.503046 -0.426184 2.800816 5.916528 1.777045 -3.241460 -30.879111 -20.282687 0.000000 0.000000 0.000000 0.925887 -7.972277 3.157859 -0.694339 16.967545 -2.254322 -0.151873 0.705101 -0.273517 0.000000 0.000000 0.000000 0.050203 -10.441321 7.750390 0.481201 26.360785 -6.264564 -1.239044 -7.822038 0.328678 0.000000 0.000000 0.000000 
-2913.878906 994.068359 1129.058960 -4.779094 2.720885 -2.058428 0.510908 3.822080 3.858500 0.316413 -0.608202 -0.810641 0.424834 0.748537 0.537387 0.211838 0.377613 -1.022491 0.000000 0.000000 0.000000 -3.198170 5.661850 -5.075555 -0.473102 5.597502 -3.354732 4.332991 -26.640479 31.380576 0.000000 0.000000 0.000000 1.848438 6.071822 -0.419949 3.233566 6.519833 2.319739 -3.513404 -35.483763 -22.572436 0.000000 0.000000 0.000000 0.749455 -7.411340 3.337136 -0.693598 16.797765 -2.484378 -0.121698 0.542276 -0.211779 0.000000 0.000000 0.000000 -0.694879 -9.819578 7.769654 -0.185557 21.529908 -5.421759 -1.641587 -6.289532 0.003821 0.000000 0.000000 0.000000 
-2907.035889 997.175415 1127.990967 -4.786269 2.572754 -2.377348 0.498486 3.779794 4.002662 0.236918 -0.639085 -0.869365 0.344704 0.732716 0.537520 0.192596 0.319275 -0.922051 0.000000 0.000000 0.000000 -3.354574 5.969993 -5.207505 -0.625937 5.746354 -3.750452 4.539789 -30.082602 33.766215 0.000000 0.000000 0.000000 2.010724 6.546344 -0.412674 3.671099 7.021017 2.806071 -3.695369 -39.718657 -24.663293 0.000000 0.000000 0.000000 0.646615 -6.803240 3.609957 -0.677448 16.721284 -2.722237 -0.084624 0.301978 -0.122906 0.000000 0.000000 0.000000 -1.234149 -9.110348 7.830965 -0.703407 17.848317 -4.617887 -1.889305 -4.750240 -0.262395 0.000000 0.000000 0.000000 
-2900.424316 1000.624634 1126.110962 -4.774159 2.342856 -2.745645 0.435143 3.813776 4.152909 0.138659 -0.663926 -0.923368 0.248951 0.720074 0.552321 0.171485 0.364820 -0.842840 0.000000 0.000000 0.000000 -3.280427 6.126957 -5.138810 -0.883671 5.651823 -4.378466 4.646455 -32.702491 36.010505 0.000000 0.000000 0.000000 2.013103 6.971850 -0.321873 4.120082 7.456738 3.137131 -3.772054 -43.550318 -26.483018 0.000000 0.000000 0.000000 0.602550 -6.208394 3.894787 -0.659320 16.847206 -2.944074 -0.041003 -0.115239 0.023329 0.000000 0.000000 0.000000 -1.419337 -8.554052 7.869704 -0.875571 16.403606 -4.165565 -1.927032 -4.103467 -0.347929 0.000000 0.000000 0.000000 
-2894.070557 1004.307190 1123.687988 -4.732835 2.097205 -3.092926 0.324778 3.846462 4.212462 0.019231 -0.658477 -0.928332 0.130576 0.713741 0.574267 0.149883 0.470156 -0.778675 0.000000 0.000000 0.000000 -3.051191 6.179984 -4.958159 -1.206139 5.418153 -5.105620 4.683807 -34.747148 38.135390 0.000000 0.000000 0.000000 1.918792 7.326624 -0.195660 4.589548 7.813209 3.383083 -3.771284 -47.084679 -28.157783 0.000000 0.000000 0.000000 0.584572 -5.660601 4.123334 -0.642732 17.098995 -3.147081 0.008587 -0.672041 0.215013 0.000000 0.000000 0.000000 -1.417164 -8.126762 7.838261 -0.849957 16.304984 -3.984572 -1.867957 -4.139219 -0.321201 0.000000 0.000000 0.000000 
-2887.991699 1007.909668 1121.634033 -4.695968 1.888421 -3.354606 0.212492 3.874191 4.201907 -0.096822 -0.653764 -0.919663 0.014214 0.715051 0.588038 0.133716 0.556128 -0.732573 0.000000 0.000000 0.000000 -2.798609 6.212516 -4.787272 -1.480032 5.228561 -5.659607 4.709437 -36.119998 40.129272 0.000000 0.000000 0.000000 1.843858 7.449099 -0.133394 5.036074 7.956251 3.682779 -3.743985 -49.720148 -30.021919 0.000000 0.000000 0.000000 0.566643 -5.112116 4.227901 -0.623374 17.234472 -3.278432 0.056580 -1.162871 0.385621 0.000000 0.000000 0.000000 -1.399936 -7.658421 7.705991 -0.813017 16.266287 -3.859217 -1.807714 -4.157972 -0.295459 0.000000 0.000000 0.000000 
-2882.166748 1011.382202 1120.147949 -4.653306 1.735674 -3.489319 0.104296 3.885013 4.125397 -0.209521 -0.660047 -0.912974 -0.099762 0.730516 0.589602 0.126708 0.595741 -0.712268 0.000000 0.000000 0.000000 -2.511353 6.242534 -4.674350 -1.659688 5.137535 -5.971544 4.768357 -36.526856 42.271272 0.000000 0.000000 0.000000 1.839948 7.182141 -0.173635 5.474476 7.766061 4.154001 -3.715121 -51.098674 -32.487418 0.000000 0.000000 0.000000 0.536247 -4.517123 4.152881 -0.601518 17.134252 -3.311348 0.101443 -1.577818 0.531201 0.000000 0.000000 0.000000 -1.436809 -7.056191 7.405759 -0.841992 15.869628 -3.708648 -1.793109 -3.907040 -0.316249 0.000000 0.000000 0.000000 
